<svg xmlns="http://www.w3.org/2000/svg" viewBox="0 0 278.3 447.69">
  <title>pin-svg</title>
  <g id="Layer_2" data-name="Layer 2">
    <g id="Layer_1-2" data-name="Layer 1">
      <path d="M139.13,447.69c-.89-1.38-1.54-2.27-2.07-3.22-31.89-56.73-64-113.36-95.57-170.26-15.21-27.38-29-55.53-35.71-86.43C-1,156.33-3.4,124.88,7.57,93.66,28.42,34.28,87.13-4.53,148.79.43c65,5.22,117,52.23,127.45,115.87,5,30.2.42,59.77-8.51,88.71-9.44,30.57-24.76,58.47-40.3,86.21q-42.81,76.47-86,152.72C140.8,445,140.13,446.11,139.13,447.69Zm.18-373.6a69.55,69.55,0,0,0-69.82,69.28q0,.28,0,.56c.07,38.27,31.44,69.33,69.94,69.25a69.64,69.64,0,0,0,69.31-69.38c0-38.52-31.17-69.79-69.46-69.71Z"/>
    </g>
  </g>
</svg>
